<svg xmlns="http://www.w3.org/2000/svg" width="457pt" height="457pt" viewBox="0 -15 457.143 457"><path fill="#4b6981" d="m179.84375 334.519531h97.371094v83.292969h-97.371094zm0 0"/><path fill="#2a3d4f" d="m277.214844 426.957031h-97.367188c-5.054687 0-9.140625-4.09375-9.140625-9.144531v-83.292969c0-5.050781 4.085938-9.144531 9.140625-9.144531h97.367188c5.054687 0 9.140625 4.09375 9.140625 9.144531v83.292969c0 5.050781-4.085938 9.144531-9.140625 9.144531zm-88.222656-18.289062h79.078124v-65.007813h-79.078124zm0 0"/><path fill="#2a3d4f" d="m295.230469 426.929688h-133.320313c-5.054687 0-9.140625-4.09375-9.140625-9.144532 0-5.046875 4.085938-9.140625 9.140625-9.140625h133.320313c5.054687 0 9.144531 4.09375 9.144531 9.140625 0 5.050782-4.089844 9.144532-9.144531 9.144532zm0 0"/><path fill="#3c96d1" d="m448 29.414062c0-11.15625-9.042969-20.199218-20.195312-20.199218h-398.464844c-11.15625 0-20.195313 9.042968-20.195313 20.199218v251.230469h438.855469zm0 0"/><path fill="#2a3d4f" d="m448 289.785156h-438.855469c-5.054687 0-9.144531-4.09375-9.144531-9.140625v-251.234375c0-16.179687 13.160156-29.3398435 29.339844-29.3398435h398.464844c16.175781 0 29.339843 13.1601565 29.339843 29.3398435v251.234375c0 5.046875-4.089843 9.140625-9.144531 9.140625zm-429.714844-18.285156h420.570313v-242.089844c0-6.09375-4.953125-11.054687-11.050781-11.054687h-398.464844c-6.097656 0-11.054688 4.960937-11.054688 11.054687zm0 0"/><path fill="#4b6981" d="m9.144531 280.644531v33.710938c0 11.152343 9.039063 20.195312 20.195313 20.195312h398.464844c11.152343 0 20.195312-9.042969 20.195312-20.195312v-33.710938zm0 0"/><g fill="#2a3d4f"><path d="m427.804688 343.691406h-398.464844c-16.179688 0-29.339844-13.160156-29.339844-29.339844v-33.707031c0-5.050781 4.089844-9.144531 9.144531-9.144531h438.855469c5.054688 0 9.144531 4.09375 9.144531 9.144531v33.707031c0 16.179688-13.164062 29.339844-29.339843 29.339844zm-409.519532-53.90625v24.566406c0 6.09375 4.957032 11.054688 11.054688 11.054688h398.464844c6.097656 0 11.050781-4.960938 11.050781-11.054688v-24.566406zm0 0"/><path d="m105.335938 150.109375 81.480468-41.96875v12.117187l-68.667968 34.421876v.351562l68.667968 34.417969v12.121093l-81.480468-41.972656zm0 0"/><path d="m198.296875 208.589844 48.992187-127.320313h11.941407l-49.164063 127.320313zm0 0"/><path d="m351.808594 159.769531-81.480469 41.800781v-12.121093l69.183594-34.417969v-.351562l-69.183594-34.421876v-12.117187l81.480469 41.796875zm0 0"/></g></svg>